<svg width="117" height="19" viewBox="0 0 117 19" fill="none" xmlns="http://www.w3.org/2000/svg">
<path fill-rule="evenodd" clip-rule="evenodd" d="M18 16L6 16L6 14L18 14L18 16Z" fill="#193F63"/>
<path d="M8 14.85C8 16.2307 6.88071 17.35 5.5 17.35C4.11929 17.35 3 16.2307 3 14.85C3 13.4693 4.11929 12.35 5.5 12.35C6.88071 12.35 8 13.4693 8 14.85Z" fill="#193F63"/>
<path fill-rule="evenodd" clip-rule="evenodd" d="M18 10H2V8H18V10Z" fill="#193F63"/>
<path d="M5 8.84998C5 10.2307 3.88071 11.35 2.5 11.35C1.11929 11.35 0 10.2307 0 8.84998C0 7.46926 1.11929 6.34998 2.5 6.34998C3.88071 6.34998 5 7.46926 5 8.84998Z" fill="#193F63"/>
<path fill-rule="evenodd" clip-rule="evenodd" d="M17.9988 4.00003H5.8457V2.00003H17.9988V4.00003Z" fill="#193F63"/>
<path d="M8 2.85001C8 4.23072 6.88071 5.35001 5.5 5.35001C4.11929 5.35001 3 4.23072 3 2.85001C3 1.46929 4.11929 0.350006 5.5 0.350006C6.88071 0.350006 8 1.46929 8 2.85001Z" fill="#193F63"/>
<path d="M39.0468 18L35.4354 18L35.0592 10.9527C34.9421 8.84603 34.8836 7.05703 34.8836 5.58571C34.8836 4.79989 34.892 4.23142 34.9087 3.88031L31.9744 16.1441L28.4884 16.1441L25.3535 3.85523C25.4203 4.87513 25.4538 6.02042 25.4538 7.29111C25.4538 8.64539 25.4203 9.891 25.3535 11.0279L24.9773 18L21.3909 18L22.7452 0.645074L27.4351 0.645074L30.2941 12.6079L32.9776 0.645074L37.7176 0.645074L39.0468 18Z" fill="#193F63"/>
<path d="M54.8513 12.2819C54.8513 13.469 54.6005 14.5223 54.0989 15.4419C53.5973 16.3615 52.845 17.0888 51.8418 17.6238C50.8553 18.1421 49.6515 18.4013 48.2304 18.4013C46.0903 18.4013 44.4517 17.8495 43.3148 16.746C42.1946 15.6258 41.6345 14.1378 41.6345 12.2819L41.6345 0.645074L45.3212 0.645073L45.3212 12.1063C45.3212 13.2767 45.5552 14.1545 46.0234 14.7397C46.4915 15.3081 47.2272 15.5924 48.2304 15.5924C49.2335 15.5924 49.9692 15.3081 50.4373 14.7397C50.9222 14.1545 51.1646 13.2767 51.1646 12.1063L51.1646 0.645073L54.8513 0.645073L54.8513 12.2819Z" fill="#193F63"/>
<path d="M63.4394 0.243804C64.6934 0.243804 65.7802 0.427719 66.6997 0.795549C67.636 1.14666 68.4971 1.69005 69.2829 2.42571L67.5274 4.45714C66.9087 3.95555 66.2901 3.58772 65.6715 3.35364C65.0529 3.11957 64.3924 3.00253 63.6902 3.00253C62.9211 3.00253 62.3025 3.16973 61.8343 3.50412C61.3829 3.82179 61.1572 4.28158 61.1572 4.88349C61.1572 5.30148 61.2492 5.64423 61.4331 5.91174C61.6337 6.17925 61.9765 6.43005 62.4613 6.66412C62.9462 6.8982 63.6735 7.16571 64.6432 7.46666C66.3654 8.01841 67.6528 8.70391 68.5055 9.52317C69.3582 10.3257 69.7845 11.4794 69.7845 12.9841C69.7845 14.0542 69.517 14.9988 68.982 15.8181C68.4469 16.6206 67.6695 17.256 66.6496 17.7241C65.6297 18.1756 64.4342 18.4013 63.0632 18.4013C61.6922 18.4013 60.4717 18.1839 59.4016 17.7492C58.3316 17.3145 57.412 16.7209 56.6429 15.9686L58.5239 13.887C59.1927 14.4554 59.8865 14.8902 60.6055 15.1911C61.3244 15.4753 62.1102 15.6175 62.9629 15.6175C63.8658 15.6175 64.5847 15.4085 65.1197 14.9905C65.6715 14.5725 65.9474 13.9873 65.9474 13.2349C65.9474 12.7668 65.847 12.3822 65.6464 12.0813C65.4625 11.7636 65.1365 11.4794 64.6683 11.2286C64.2002 10.9778 63.523 10.7186 62.6369 10.4511C60.7476 9.86592 59.3933 9.1637 58.574 8.34444C57.7715 7.52518 57.3702 6.45513 57.3702 5.13428C57.3702 4.16455 57.6294 3.31185 58.1477 2.57619C58.666 1.8238 59.3849 1.24698 60.3045 0.845709C61.2241 0.444439 62.2691 0.243804 63.4394 0.243804Z" fill="#193F63"/>
<path d="M77.3506 0.243804C78.6046 0.243804 79.6914 0.427719 80.611 0.795549C81.5473 1.14666 82.4083 1.69005 83.1941 2.42571L81.4386 4.45714C80.82 3.95555 80.2013 3.58772 79.5827 3.35364C78.9641 3.11957 78.3037 3.00253 77.6014 3.00253C76.8323 3.00253 76.2137 3.16973 75.7456 3.50412C75.2941 3.82179 75.0684 4.28158 75.0684 4.88349C75.0684 5.30148 75.1604 5.64423 75.3443 5.91174C75.5449 6.17925 75.8877 6.43005 76.3725 6.66412C76.8574 6.8982 77.5847 7.16571 78.5545 7.46666C80.2766 8.01841 81.564 8.70391 82.4167 9.52317C83.2694 10.3257 83.6957 11.4794 83.6957 12.9841C83.6957 14.0542 83.4282 14.9988 82.8932 15.8181C82.3582 16.6206 81.5807 17.256 80.5608 17.7241C79.5409 18.1756 78.3455 18.4013 76.9744 18.4013C75.6034 18.4013 74.3829 18.1839 73.3129 17.7492C72.2428 17.3145 71.3232 16.7209 70.5541 15.9686L72.4351 13.887C73.1039 14.4554 73.7977 14.8902 74.5167 15.1911C75.2356 15.4753 76.0214 15.6175 76.8741 15.6175C77.777 15.6175 78.4959 15.4085 79.031 14.9905C79.5827 14.5725 79.8586 13.9873 79.8586 13.2349C79.8586 12.7668 79.7583 12.3822 79.5576 12.0813C79.3737 11.7636 79.0477 11.4794 78.5795 11.2286C78.1114 10.9778 77.4342 10.7186 76.5481 10.4511C74.6588 9.86592 73.3045 9.1637 72.4852 8.34444C71.6827 7.52518 71.2814 6.45513 71.2814 5.13428C71.2814 4.16454 71.5406 3.31185 72.0589 2.57618C72.5772 1.8238 73.2961 1.24698 74.2157 0.845708C75.1353 0.444439 76.1803 0.243804 77.3506 0.243804Z" fill="#193F63"/>
<path d="M93.0862 0.243804C94.6745 0.243804 96.0456 0.603275 97.1992 1.32222C98.3529 2.02444 99.239 3.05269 99.8576 4.40698C100.476 5.76126 100.786 7.39978 100.786 9.32253C100.786 11.2118 100.476 12.842 99.8576 14.213C99.239 15.5673 98.3529 16.6039 97.1992 17.3229C96.0456 18.0418 94.6745 18.4013 93.0862 18.4013C91.4978 18.4013 90.1185 18.0502 88.9481 17.3479C87.7944 16.629 86.9083 15.5924 86.2897 14.2381C85.671 12.8671 85.3617 11.2286 85.3617 9.32253C85.3617 7.44994 85.671 5.8365 86.2897 4.48222C86.925 3.11121 87.8195 2.06624 88.9732 1.3473C90.1435 0.611634 91.5145 0.243804 93.0862 0.243804ZM93.0862 3.00253C91.8155 3.00253 90.8541 3.50412 90.2021 4.50729C89.5667 5.51047 89.249 7.11555 89.249 9.32253C89.249 11.5295 89.5751 13.1346 90.2271 14.1378C90.8792 15.1409 91.8322 15.6425 93.0862 15.6425C94.3569 15.6425 95.3099 15.1493 95.9452 14.1629C96.5806 13.1597 96.8982 11.5462 96.8982 9.32253C96.8982 7.09883 96.5806 5.49375 95.9452 4.50729C95.3099 3.50412 94.3569 3.00253 93.0862 3.00253Z" fill="#193F63"/>
<path d="M116.671 18L111.931 18L106.414 4.23142C106.564 5.41851 106.681 6.53872 106.765 7.59206C106.865 8.62867 106.915 9.8492 106.915 11.2536L106.915 18L103.58 18L103.58 0.645073L108.219 0.645072L113.837 14.4387C113.503 12.1983 113.335 10.1418 113.335 8.2692L113.335 0.645072L116.671 0.645072L116.671 18Z" fill="#193F63"/>
</svg>
